<svg xmlns="http://www.w3.org/2000/svg" viewBox="0 0 142.91 76.44"><defs><style>.cls-1{fill:#fff;}.cls-2{fill:#f8b334;}</style></defs><g id="Capa_2" data-name="Capa 2"><g id="Capa_1-2" data-name="Capa 1"><polygon class="cls-1" points="14.99 21.69 14.99 22.32 0.45 22.32 0.45 0.16 14.71 0.16 14.71 0.78 1.07 0.78 1.07 10.68 13.03 10.68 13.03 11.3 1.07 11.3 1.07 21.69 14.99 21.69"></polygon><path class="cls-1" d="M32,3.09a7.31,7.31,0,0,0-2.73-2A9.81,9.81,0,0,0,25.92.59,12.31,12.31,0,0,0,22.66,1a6,6,0,0,0-2.23,1.08,4.17,4.17,0,0,0-1.29,1.67,5.57,5.57,0,0,0-.4,2.18,4.34,4.34,0,0,0,.4,2,3.55,3.55,0,0,0,1.25,1.34,8.31,8.31,0,0,0,2.17.94c.89.26,1.94.52,3.17.77s2.34.52,3.34.81a9.8,9.8,0,0,1,2.54,1.09,4.7,4.7,0,0,1,1.61,1.62,4.76,4.76,0,0,1,.56,2.44A4.74,4.74,0,0,1,31.71,21,9.93,9.93,0,0,1,26,22.47a12.8,12.8,0,0,1-4.76-.82A11.34,11.34,0,0,1,17.37,19l.46-.4a10.51,10.51,0,0,0,3.67,2.52,12.26,12.26,0,0,0,4.51.78,9.61,9.61,0,0,0,5.23-1.23A4.12,4.12,0,0,0,33.16,17a4.67,4.67,0,0,0-.44-2.11,4.08,4.08,0,0,0-1.34-1.48,8.58,8.58,0,0,0-2.31-1.06,32.21,32.21,0,0,0-3.31-.81c-1.23-.23-2.31-.47-3.26-.73a9.58,9.58,0,0,1-2.4-1,4.19,4.19,0,0,1-1.49-1.53,4.83,4.83,0,0,1-.5-2.3,5.75,5.75,0,0,1,.55-2.54,5.2,5.2,0,0,1,1.56-1.87A7.17,7.17,0,0,1,22.66.39,12,12,0,0,1,25.86,0a10.21,10.21,0,0,1,3.7.61,7.68,7.68,0,0,1,2.88,2Z"></path><path class="cls-1" d="M38,22.32V.16h9a5.59,5.59,0,0,1,2.5.57,6.49,6.49,0,0,1,2,1.53,7.38,7.38,0,0,1,1.29,2.16,6.54,6.54,0,0,1,.47,2.45,7.52,7.52,0,0,1-.43,2.53,7,7,0,0,1-1.24,2.15,6.19,6.19,0,0,1-1.9,1.5,5.41,5.41,0,0,1-2.45.56H38.65v8.71ZM38.65,13h8.62a4.72,4.72,0,0,0,2.26-.54,5.15,5.15,0,0,0,1.7-1.4,6.56,6.56,0,0,0,1.06-2,6.71,6.71,0,0,0,.38-2.21,6.13,6.13,0,0,0-.44-2.28A6.44,6.44,0,0,0,51,2.65a6,6,0,0,0-1.8-1.35A4.7,4.7,0,0,0,47.05.78h-8.4Z"></path><path class="cls-1" d="M63.09.16h.56L73.3,22.32h-.69l-3.46-7.93H57.57L54.1,22.32h-.68Zm5.78,13.61L63.37,1.06,57.82,13.77Z"></path><path class="cls-1" d="M74.58,11.08a11.83,11.83,0,0,1,2.73-7.51A10.41,10.41,0,0,1,80.59,1,9.81,9.81,0,0,1,85,0a8.88,8.88,0,0,1,5,1.36,8.26,8.26,0,0,1,3.06,3.48l-.59.19A8.22,8.22,0,0,0,91,3a7.15,7.15,0,0,0-1.87-1.36A8.86,8.86,0,0,0,87.05.89,9.8,9.8,0,0,0,84.91.66a8.89,8.89,0,0,0-4.12.92A9.58,9.58,0,0,0,77.73,4a10.48,10.48,0,0,0-1.89,3.38,12,12,0,0,0-.64,3.79A10.93,10.93,0,0,0,76,15.23a11.43,11.43,0,0,0,2.09,3.42A10.13,10.13,0,0,0,81.17,21a8.59,8.59,0,0,0,3.84.87,9.35,9.35,0,0,0,2.24-.28,10.29,10.29,0,0,0,2.24-.84,8.88,8.88,0,0,0,2-1.45,8.63,8.63,0,0,0,1.58-2.11l.59.15a7.11,7.11,0,0,1-1.53,2.22A9.13,9.13,0,0,1,90,21.19a10.25,10.25,0,0,1-2.51,1,10.74,10.74,0,0,1-2.58.33,8.86,8.86,0,0,1-4.15-1,10.8,10.8,0,0,1-3.26-2.61,12.17,12.17,0,0,1-2.12-3.65,11.61,11.61,0,0,1-.77-4.17"></path><rect class="cls-1" x="97.93" y="0.16" width="0.62" height="22.16"></rect><path class="cls-1" d="M113.47,22.47a9.14,9.14,0,0,1-4.2-1A11.09,11.09,0,0,1,106,19a11.44,11.44,0,0,1-2.12-3.59,11.89,11.89,0,0,1-.75-4.15,11.58,11.58,0,0,1,.8-4.25,12,12,0,0,1,2.18-3.59A10.65,10.65,0,0,1,109.4.92,9.23,9.23,0,0,1,113.47,0a9,9,0,0,1,4.18,1,10.87,10.87,0,0,1,3.27,2.58,12,12,0,0,1,2.1,3.6,11.7,11.7,0,0,1,0,8.35,11.53,11.53,0,0,1-2.19,3.58,10.51,10.51,0,0,1-3.26,2.46,9,9,0,0,1-4.06.92m-9.71-11.23a11.06,11.06,0,0,0,.74,4,11.45,11.45,0,0,0,2,3.4A9.59,9.59,0,0,0,109.57,21a8.78,8.78,0,0,0,3.9.87,8.57,8.57,0,0,0,4-.92,9.69,9.69,0,0,0,3.06-2.42,11.41,11.41,0,0,0,2.67-7.27,11,11,0,0,0-.74-4,10.81,10.81,0,0,0-2-3.4A9.94,9.94,0,0,0,117.3,1.5a8.81,8.81,0,0,0-7.78.05A10.07,10.07,0,0,0,106.45,4a11.25,11.25,0,0,0-2,3.41,11.08,11.08,0,0,0-.71,3.87"></path><path class="cls-1" d="M141.16,3.09a7.31,7.31,0,0,0-2.73-2A9.81,9.81,0,0,0,135,.59a12.31,12.31,0,0,0-3.26.38,6,6,0,0,0-2.23,1.08,4.06,4.06,0,0,0-1.28,1.67,5.57,5.57,0,0,0-.41,2.18,4.33,4.33,0,0,0,.41,2,3.4,3.4,0,0,0,1.25,1.34,8.09,8.09,0,0,0,2.16.94c.89.26,1.95.52,3.17.77s2.34.52,3.34.81a10,10,0,0,1,2.55,1.09,4.76,4.76,0,0,1,1.6,1.62,4.76,4.76,0,0,1,.57,2.44A4.75,4.75,0,0,1,140.83,21a9.91,9.91,0,0,1-5.73,1.43,12.84,12.84,0,0,1-4.76-.82A11.34,11.34,0,0,1,126.49,19l.47-.4a10.38,10.38,0,0,0,3.66,2.52,12.26,12.26,0,0,0,4.51.78,9.61,9.61,0,0,0,5.23-1.23A4.12,4.12,0,0,0,142.28,17a4.54,4.54,0,0,0-.44-2.11,4,4,0,0,0-1.34-1.48,8.58,8.58,0,0,0-2.31-1.06,32.21,32.21,0,0,0-3.31-.81c-1.22-.23-2.31-.47-3.26-.73a9.74,9.74,0,0,1-2.4-1,4.08,4.08,0,0,1-1.48-1.53,4.72,4.72,0,0,1-.5-2.3,5.75,5.75,0,0,1,.54-2.54,5.3,5.3,0,0,1,1.56-1.87A7.17,7.17,0,0,1,131.78.39,12.09,12.09,0,0,1,135,0a10.18,10.18,0,0,1,3.7.61,7.6,7.6,0,0,1,2.88,2Z"></path><polygon class="cls-1" points="16.76 48.96 16.76 37.29 13.05 45.5 9.8 45.5 6.09 37.29 6.09 48.96 0 48.96 0 26.8 6.65 26.8 11.43 37.23 16.23 26.8 22.85 26.8 22.85 48.96 16.76 48.96"></polygon><polygon class="cls-1" points="42.45 43.66 42.45 48.96 26.66 48.96 26.66 26.8 42.17 26.8 42.17 32.11 32.74 32.11 32.74 35.23 40.8 35.23 40.8 40.16 32.74 40.16 32.74 43.66 42.45 43.66"></polygon><path class="cls-1" d="M45.29,49V26.8h8.52a12.33,12.33,0,0,1,4.84.88,9.71,9.71,0,0,1,5.62,5.88A12.63,12.63,0,0,1,65,37.85a12.48,12.48,0,0,1-.8,4.57,9.83,9.83,0,0,1-2.26,3.5,10.17,10.17,0,0,1-3.53,2.25,12.63,12.63,0,0,1-4.59.79Z"></path><rect class="cls-1" x="67.64" y="26.8" width="6.09" height="22.16"></rect><path class="cls-1" d="M83.28,26.8h5.55L96.51,49H90.33L89,44.63h-5.9L81.78,49H75.57ZM88,40.57l-2-6.87L84,40.57Z"></path><polygon class="cls-1" points="0.02 76.25 0.02 54.09 6.11 54.09 6.11 70.95 16.16 70.95 16.16 76.25 0.02 76.25"></polygon><path class="cls-1" d="M27.61,71a3.36,3.36,0,0,0,1.81-.47,3.68,3.68,0,0,0,1.22-1.23,5.88,5.88,0,0,0,.69-1.76,10.24,10.24,0,0,0,.21-2.1V54.09h6.09V65.48A15.41,15.41,0,0,1,37,69.81a9.52,9.52,0,0,1-1.84,3.48,8.73,8.73,0,0,1-3.14,2.31,10.87,10.87,0,0,1-4.45.84,10.62,10.62,0,0,1-4.54-.89A8.75,8.75,0,0,1,20,73.16a9.56,9.56,0,0,1-1.77-3.48,15.11,15.11,0,0,1-.57-4.2V54.09h6.09V65.48a9.68,9.68,0,0,0,.22,2.11,5.33,5.33,0,0,0,.69,1.78,3.59,3.59,0,0,0,1.2,1.22,3.35,3.35,0,0,0,1.79.45"></path><polygon class="cls-1" points="47.21 65.36 47.21 76.25 41.13 76.25 41.13 54.09 45.87 54.09 54.77 65.36 54.77 54.09 60.85 54.09 60.85 76.25 56.02 76.25 47.21 65.36"></polygon><path class="cls-1" d="M70.4,54.09H76l7.68,22.16H77.46l-1.34-4.33h-5.9l-1.31,4.33H62.7Zm4.75,13.77-2-6.87-2.06,6.87Z"></path><path class="cls-2" d="M54.47,37.55a4.69,4.69,0,0,1-3,4.36,4.75,4.75,0,0,0,1.73.33,4.69,4.69,0,1,0,0-9.38,4.75,4.75,0,0,0-1.73.32,4.71,4.71,0,0,1,3,4.37"></path></g></g></svg>